<svg width="32" height="32" viewBox="0 0 32 32" xmlns="http://www.w3.org/2000/svg">
  <defs>
    <linearGradient id="bg" x1="0%" y1="0%" x2="100%" y2="100%">
      <stop offset="0%" style="stop-color:#0a0a2a;stop-opacity:1" />
      <stop offset="100%" style="stop-color:#1a1a4a;stop-opacity:1" />
    </linearGradient>
    <linearGradient id="rocket" x1="0%" y1="0%" x2="100%" y2="100%">
      <stop offset="0%" style="stop-color:#ff6b35;stop-opacity:1" />
      <stop offset="50%" style="stop-color:#ff8c42;stop-opacity:1" />
      <stop offset="100%" style="stop-color:#ff6b35;stop-opacity:1" />
    </linearGradient>
    <linearGradient id="window" x1="0%" y1="0%" x2="100%" y2="100%">
      <stop offset="0%" style="stop-color:#87ceeb;stop-opacity:1" />
      <stop offset="100%" style="stop-color:#4a90e2;stop-opacity:1" />
    </linearGradient>
    <radialGradient id="flame" cx="50%" cy="50%" r="50%">
      <stop offset="0%" style="stop-color:#ffff00;stop-opacity:1" />
      <stop offset="50%" style="stop-color:#ff6600;stop-opacity:1" />
      <stop offset="100%" style="stop-color:#ff0000;stop-opacity:0.8" />
    </radialGradient>
  </defs>
  
  <!-- Background -->
  <rect width="32" height="32" fill="url(#bg)"/>
  
  <!-- Stars -->
  <g fill="#ffffff">
    <circle cx="2.7298941033220245" cy="10.17221169130071" r="1.498899992023155"/><circle cx="21.41098984999706" cy="17.377091878465677" r="2.2635132688706134"/><circle cx="5.076165231253263" cy="3.591616952498086" r="2.0643088781326178"/><circle cx="25.226486642806343" cy="7.049164676117805" r="1.0882598710269615"/><circle cx="28.72123561692016" cy="26.319452226592567" r="1.494316645021013"/>
  </g>
  
  <!-- Rocket -->
  <g transform="translate(16, 16)">
    <!-- Rocket body -->
    <ellipse cx="0" cy="0" rx="2.56" ry="8" fill="url(#rocket)"/>
    
    <!-- Rocket nose cone -->
    <polygon points="0,-8 -2.56,-4.8 2.56,-4.8" fill="#ff4444"/>
    
    <!-- Rocket window -->
    <circle cx="0" cy="-1.6" r="0.96" fill="url(#window)"/>
    <circle cx="0" cy="-1.6" r="0.48" fill="#ffffff"/>
    
    <!-- Rocket fins -->
    <polygon points="-2.56,4.8 -4.8,8 -3.84,8" fill="#ff4444"/>
    <polygon points="2.56,4.8 4.8,8 3.84,8" fill="#ff4444"/>
    
    <!-- Rocket engine flames -->
    <ellipse cx="0" cy="8" rx="1.92" ry="3.84" fill="url(#flame)"/>
    <ellipse cx="0" cy="8" rx="1.28" ry="2.56" fill="#ffff00"/>
    
    <!-- Side flames -->
    <ellipse cx="-1.92" cy="6.4" rx="0.96" ry="2.56" fill="url(#flame)"/>
    <ellipse cx="1.92" cy="6.4" rx="0.96" ry="2.56" fill="url(#flame)"/>
  </g>
</svg>