<svg width="512" height="512" viewBox="0 0 512 512" xmlns="http://www.w3.org/2000/svg">
  <defs>
    <linearGradient id="bg" x1="0%" y1="0%" x2="100%" y2="100%">
      <stop offset="0%" style="stop-color:#0a0a2a;stop-opacity:1" />
      <stop offset="100%" style="stop-color:#1a1a4a;stop-opacity:1" />
    </linearGradient>
  </defs>
  <rect width="512" height="512" fill="url(#bg)"/>
  
  <!-- Stars -->
  <g fill="#ffffff">
    <circle cx="291.8390296583541" cy="319.22035564294276" r="1"/><circle cx="394.735338964766" cy="502.3291401641003" r="1"/><circle cx="398.79296709724485" cy="504.0995941795377" r="1"/><circle cx="297.8502615737111" cy="471.56692580209176" r="1"/><circle cx="96.5337713660316" cy="480.4635724350519" r="1"/><circle cx="110.15960488751125" cy="453.0775236251808" r="1"/><circle cx="206.92380974798357" cy="338.64857022146157" r="1"/><circle cx="425.78308743366574" cy="199.96350820020132" r="1"/><circle cx="359.500367372528" cy="31.5145797682261" r="1"/><circle cx="9.982771154743205" cy="280.62960992429123" r="1"/><circle cx="463.2131612806727" cy="98.33071014447603" r="1"/><circle cx="446.5067162380261" cy="332.0515309389709" r="1"/><circle cx="400.46012532395764" cy="371.55162620061833" r="1"/><circle cx="198.3309981432693" cy="237.48301227528907" r="1"/><circle cx="183.34144931677724" cy="345.87771651722267" r="1"/><circle cx="259.8732268367095" cy="193.06095092749604" r="1"/><circle cx="321.5363315761749" cy="414.69714715538305" r="1"/><circle cx="377.90025792884535" cy="12.966092543293257" r="1"/><circle cx="46.75175044775574" cy="466.5034771821548" r="1"/><circle cx="403.51582142915106" cy="330.7716383641923" r="1"/><circle cx="293.75372272781124" cy="238.60749836209857" r="1"/><circle cx="213.802402328222" cy="240.30965555911678" r="1"/><circle cx="294.2433781309288" cy="371.1888014384124" r="1"/><circle cx="114.70935532248734" cy="302.5471857829716" r="1"/><circle cx="478.3193514835498" cy="338.8183481752967" r="1"/><circle cx="368.30059776271014" cy="244.12966427052015" r="1"/><circle cx="139.9573688023197" cy="341.26804096276123" r="1"/><circle cx="337.55549803344604" cy="158.00154433157195" r="1"/><circle cx="20.436885342642995" cy="38.13008645862806" r="1"/><circle cx="127.62696241494871" cy="396.10570783677156" r="1"/><circle cx="370.2298738368254" cy="396.63590842643134" r="1"/><circle cx="337.1984157164835" cy="373.9618425845773" r="1"/><circle cx="363.4759921716625" cy="225.29122922075317" r="1"/><circle cx="409.3946556256167" cy="151.0685404831064" r="1"/><circle cx="298.4849286117253" cy="361.3388314525596" r="1"/><circle cx="85.29309348840616" cy="511.86843153996244" r="1"/><circle cx="62.94597106038361" cy="104.86742138237855" r="1"/><circle cx="146.15480852671124" cy="156.8222167695335" r="1"/><circle cx="293.66434232880465" cy="464.8771488183387" r="1"/><circle cx="499.25424266417815" cy="238.6629883089097" r="1"/><circle cx="327.7793076260166" cy="477.16987470051595" r="1"/><circle cx="36.58486157331231" cy="7.958129679548961" r="1"/><circle cx="182.41987860741585" cy="174.99383918943568" r="1"/><circle cx="213.75222174336682" cy="472.1204112917535" r="1"/><circle cx="377.0764299395171" cy="260.9491469859644" r="1"/><circle cx="374.69119397627765" cy="226.08754161947763" r="1"/><circle cx="286.6824505370537" cy="254.4814761594755" r="1"/><circle cx="305.34446332434663" cy="81.5703483149116" r="1"/><circle cx="336.7784481112993" cy="426.23305266275486" r="1"/><circle cx="397.23960778200626" cy="231.17568208746854" r="1"/><circle cx="389.19650067544626" cy="0.7158625914161121" r="1"/><circle cx="68.18853017201457" cy="437.748655464742" r="1"/><circle cx="451.08716423497503" cy="353.30624674617593" r="1"/><circle cx="413.37503805402457" cy="16.300260112984574" r="1"/><circle cx="259.2868211741809" cy="97.47422629425978" r="1"/><circle cx="147.14459050713242" cy="52.70449148503667" r="1"/><circle cx="237.8010952901626" cy="209.5282603493497" r="1"/><circle cx="104.33185817243464" cy="332.1944568019019" r="1"/><circle cx="321.6240355942316" cy="284.3423178166331" r="1"/><circle cx="10.37073798041979" cy="444.8729451702544" r="1"/><circle cx="502.55292511581195" cy="424.0654261421573" r="1"/><circle cx="280.3094872022755" cy="327.46380509873916" r="1"/><circle cx="376.7014512467374" cy="188.33046002019375" r="1"/><circle cx="441.69795195258826" cy="279.61645728135636" r="1"/>
  </g>
  
  <!-- Ship -->
  <g transform="translate(256, 256)">
    <polygon points="0,-102.4 -76.8,76.8 -51.2,102.4 51.2,102.4 76.8,76.8" fill="#4a90e2"/>
    <ellipse cx="0" cy="0" rx="10.24" ry="20.48" fill="#87ceeb"/>
    <rect x="-10.24" y="102.4" width="20.48" height="10.24" fill="#ff6b35"/>
  </g>
</svg>