<svg width="16" height="16" viewBox="0 0 16 16" xmlns="http://www.w3.org/2000/svg">
  <defs>
    <linearGradient id="bg" x1="0%" y1="0%" x2="100%" y2="100%">
      <stop offset="0%" style="stop-color:#0a0a2a;stop-opacity:1" />
      <stop offset="100%" style="stop-color:#1a1a4a;stop-opacity:1" />
    </linearGradient>
    <linearGradient id="rocket" x1="0%" y1="0%" x2="100%" y2="100%">
      <stop offset="0%" style="stop-color:#ff6b35;stop-opacity:1" />
      <stop offset="50%" style="stop-color:#ff8c42;stop-opacity:1" />
      <stop offset="100%" style="stop-color:#ff6b35;stop-opacity:1" />
    </linearGradient>
    <linearGradient id="window" x1="0%" y1="0%" x2="100%" y2="100%">
      <stop offset="0%" style="stop-color:#87ceeb;stop-opacity:1" />
      <stop offset="100%" style="stop-color:#4a90e2;stop-opacity:1" />
    </linearGradient>
    <radialGradient id="flame" cx="50%" cy="50%" r="50%">
      <stop offset="0%" style="stop-color:#ffff00;stop-opacity:1" />
      <stop offset="50%" style="stop-color:#ff6600;stop-opacity:1" />
      <stop offset="100%" style="stop-color:#ff0000;stop-opacity:0.8" />
    </radialGradient>
  </defs>
  
  <!-- Background -->
  <rect width="16" height="16" fill="url(#bg)"/>
  
  <!-- Stars -->
  <g fill="#ffffff">
    <circle cx="15.896018042528766" cy="4.271038622824506" r="1.0224406652821965"/><circle cx="8.320483234995802" cy="4.970004144900283" r="0.5492834569126726"/>
  </g>
  
  <!-- Rocket -->
  <g transform="translate(8, 8)">
    <!-- Rocket body -->
    <ellipse cx="0" cy="0" rx="1.28" ry="4" fill="url(#rocket)"/>
    
    <!-- Rocket nose cone -->
    <polygon points="0,-4 -1.28,-2.4 1.28,-2.4" fill="#ff4444"/>
    
    <!-- Rocket window -->
    <circle cx="0" cy="-0.8" r="0.48" fill="url(#window)"/>
    <circle cx="0" cy="-0.8" r="0.24" fill="#ffffff"/>
    
    <!-- Rocket fins -->
    <polygon points="-1.28,2.4 -2.4,4 -1.92,4" fill="#ff4444"/>
    <polygon points="1.28,2.4 2.4,4 1.92,4" fill="#ff4444"/>
    
    <!-- Rocket engine flames -->
    <ellipse cx="0" cy="4" rx="0.96" ry="1.92" fill="url(#flame)"/>
    <ellipse cx="0" cy="4" rx="0.64" ry="1.28" fill="#ffff00"/>
    
    <!-- Side flames -->
    <ellipse cx="-0.96" cy="3.2" rx="0.48" ry="1.28" fill="url(#flame)"/>
    <ellipse cx="0.96" cy="3.2" rx="0.48" ry="1.28" fill="url(#flame)"/>
  </g>
</svg>