<svg width="152" height="152" viewBox="0 0 152 152" xmlns="http://www.w3.org/2000/svg">
  <defs>
    <linearGradient id="bg" x1="0%" y1="0%" x2="100%" y2="100%">
      <stop offset="0%" style="stop-color:#0a0a2a;stop-opacity:1" />
      <stop offset="100%" style="stop-color:#1a1a4a;stop-opacity:1" />
    </linearGradient>
    <linearGradient id="rocket" x1="0%" y1="0%" x2="100%" y2="100%">
      <stop offset="0%" style="stop-color:#ff6b35;stop-opacity:1" />
      <stop offset="50%" style="stop-color:#ff8c42;stop-opacity:1" />
      <stop offset="100%" style="stop-color:#ff6b35;stop-opacity:1" />
    </linearGradient>
    <linearGradient id="window" x1="0%" y1="0%" x2="100%" y2="100%">
      <stop offset="0%" style="stop-color:#87ceeb;stop-opacity:1" />
      <stop offset="100%" style="stop-color:#4a90e2;stop-opacity:1" />
    </linearGradient>
    <radialGradient id="flame" cx="50%" cy="50%" r="50%">
      <stop offset="0%" style="stop-color:#ffff00;stop-opacity:1" />
      <stop offset="50%" style="stop-color:#ff6600;stop-opacity:1" />
      <stop offset="100%" style="stop-color:#ff0000;stop-opacity:0.8" />
    </radialGradient>
  </defs>
  
  <!-- Background -->
  <rect width="152" height="152" fill="url(#bg)"/>
  
  <!-- Stars -->
  <g fill="#ffffff">
    <circle cx="64.109666547814" cy="75.56380940953403" r="0.7256910878712266"/><circle cx="84.07116096507359" cy="75.4225747085793" r="0.5579810049218099"/><circle cx="119.32181940769567" cy="135.10585143306594" r="2.495296198964625"/><circle cx="16.823212675387403" cy="5.136457905743534" r="1.7759646695382791"/><circle cx="27.719389817806878" cy="67.6235186677316" r="1.5955223622194539"/><circle cx="14.177156815842736" cy="113.10665969245329" r="2.352946822252476"/><circle cx="32.626178305313616" cy="95.76729211603327" r="1.288268554360601"/><circle cx="80.75524212361323" cy="61.09695362344633" r="1.0887841337575659"/><circle cx="131.739004935275" cy="98.2791641250239" r="0.6584201866161443"/><circle cx="64.29267830142882" cy="123.82497263609213" r="1.176110724273761"/><circle cx="37.83501413882781" cy="38.66563413787453" r="2.3019122108928984"/><circle cx="6.413954614915214" cy="129.97198395642894" r="0.6653315471590218"/><circle cx="66.55558704236853" cy="5.339463372842969" r="1.0672870133610344"/><circle cx="39.12980662637854" cy="32.290705378729456" r="1.9933540305474668"/><circle cx="113.17979254275448" cy="100.51867213338484" r="0.5897391088112078"/><circle cx="33.9734625854347" cy="116.6675255520973" r="1.7408944103960455"/><circle cx="148.1316854097326" cy="85.34855291883905" r="1.1564479198016437"/><circle cx="110.58346198859631" cy="123.85783448097787" r="1.8659455221636323"/><circle cx="4.2707576909367955" cy="105.66130045580341" r="1.2944588246369073"/><circle cx="41.200512669830125" cy="49.38952408661872" r="0.8945465430653132"/><circle cx="107.34259685383489" cy="95.26408084554487" r="2.417696447866068"/><circle cx="105.73056902929503" cy="110.01130377272214" r="1.3334325272272087"/><circle cx="58.55664937234917" cy="32.25644076326961" r="1.5066754408985736"/><circle cx="109.45288858740528" cy="134.7079164614673" r="0.6126919583021841"/><circle cx="54.612492195424664" cy="9.714380435736967" r="0.8228839365277016"/>
  </g>
  
  <!-- Rocket -->
  <g transform="translate(76, 76)">
    <!-- Rocket body -->
    <ellipse cx="0" cy="0" rx="12.16" ry="38" fill="url(#rocket)"/>
    
    <!-- Rocket nose cone -->
    <polygon points="0,-38 -12.16,-22.8 12.16,-22.8" fill="#ff4444"/>
    
    <!-- Rocket window -->
    <circle cx="0" cy="-7.6000000000000005" r="4.56" fill="url(#window)"/>
    <circle cx="0" cy="-7.6000000000000005" r="2.28" fill="#ffffff"/>
    
    <!-- Rocket fins -->
    <polygon points="-12.16,22.8 -22.8,38 -18.24,38" fill="#ff4444"/>
    <polygon points="12.16,22.8 22.8,38 18.24,38" fill="#ff4444"/>
    
    <!-- Rocket engine flames -->
    <ellipse cx="0" cy="38" rx="9.12" ry="18.24" fill="url(#flame)"/>
    <ellipse cx="0" cy="38" rx="6.08" ry="12.16" fill="#ffff00"/>
    
    <!-- Side flames -->
    <ellipse cx="-9.12" cy="30.400000000000002" rx="4.56" ry="12.16" fill="url(#flame)"/>
    <ellipse cx="9.12" cy="30.400000000000002" rx="4.56" ry="12.16" fill="url(#flame)"/>
  </g>
</svg>