<svg width="152" height="152" viewBox="0 0 152 152" xmlns="http://www.w3.org/2000/svg">
  <defs>
    <linearGradient id="bg" x1="0%" y1="0%" x2="100%" y2="100%">
      <stop offset="0%" style="stop-color:#0a0a2a;stop-opacity:1" />
      <stop offset="100%" style="stop-color:#1a1a4a;stop-opacity:1" />
    </linearGradient>
  </defs>
  <rect width="152" height="152" fill="url(#bg)"/>
  
  <!-- Stars -->
  <g fill="#ffffff">
    <circle cx="111.02577750901807" cy="17.410216095246376" r="1"/><circle cx="112.29666707145246" cy="102.80353354482354" r="1"/><circle cx="24.889087962665275" cy="87.73580523541312" r="1"/><circle cx="47.10582086589827" cy="41.55413950557343" r="1"/><circle cx="9.132295064907435" cy="7.490046687513791" r="1"/><circle cx="13.409079159905385" cy="10.511050101173058" r="1"/><circle cx="29.691562600111936" cy="131.72267998001087" r="1"/><circle cx="141.54892743016782" cy="75.71340432842314" r="1"/><circle cx="97.48058795244934" cy="105.01406667239661" r="1"/><circle cx="135.89532739380124" cy="138.88192185338218" r="1"/><circle cx="77.24315607305341" cy="105.59274882463902" r="1"/><circle cx="84.47542864463627" cy="129.45679573111266" r="1"/><circle cx="49.1816458609907" cy="9.755228360332358" r="1"/><circle cx="62.10462582354975" cy="45.13629239039646" r="1"/><circle cx="44.3106672112385" cy="149.91631185319966" r="1"/><circle cx="40.003090115959125" cy="8.226280482327775" r="1"/><circle cx="122.8889546742319" cy="75.562691670734" r="1"/><circle cx="97.53025210463936" cy="138.62979292537565" r="1"/><circle cx="44.68135498090661" cy="46.25614624221769" r="1"/>
  </g>
  
  <!-- Ship -->
  <g transform="translate(76, 76)">
    <polygon points="0,-30.400000000000002 -22.8,22.8 -15.200000000000001,30.400000000000002 15.200000000000001,30.400000000000002 22.8,22.8" fill="#4a90e2"/>
    <ellipse cx="0" cy="0" rx="3.04" ry="6.08" fill="#87ceeb"/>
    <rect x="-3.04" y="30.400000000000002" width="6.08" height="3.04" fill="#ff6b35"/>
  </g>
</svg>