<svg width="512" height="512" viewBox="0 0 512 512" xmlns="http://www.w3.org/2000/svg">
  <defs>
    <linearGradient id="bg" x1="0%" y1="0%" x2="100%" y2="100%">
      <stop offset="0%" style="stop-color:#0a0a2a;stop-opacity:1" />
      <stop offset="100%" style="stop-color:#1a1a4a;stop-opacity:1" />
    </linearGradient>
    <linearGradient id="rocket" x1="0%" y1="0%" x2="100%" y2="100%">
      <stop offset="0%" style="stop-color:#ff6b35;stop-opacity:1" />
      <stop offset="50%" style="stop-color:#ff8c42;stop-opacity:1" />
      <stop offset="100%" style="stop-color:#ff6b35;stop-opacity:1" />
    </linearGradient>
    <linearGradient id="window" x1="0%" y1="0%" x2="100%" y2="100%">
      <stop offset="0%" style="stop-color:#87ceeb;stop-opacity:1" />
      <stop offset="100%" style="stop-color:#4a90e2;stop-opacity:1" />
    </linearGradient>
    <radialGradient id="flame" cx="50%" cy="50%" r="50%">
      <stop offset="0%" style="stop-color:#ffff00;stop-opacity:1" />
      <stop offset="50%" style="stop-color:#ff6600;stop-opacity:1" />
      <stop offset="100%" style="stop-color:#ff0000;stop-opacity:0.8" />
    </radialGradient>
  </defs>
  
  <!-- Background -->
  <rect width="512" height="512" fill="url(#bg)"/>
  
  <!-- Stars -->
  <g fill="#ffffff">
    <circle cx="415.8928194520365" cy="306.54032992134853" r="1.6377112335458235"/><circle cx="60.39551325797379" cy="214.16716874300482" r="2.057152675898465"/><circle cx="276.1053558071469" cy="320.5443070160344" r="2.0509929478218574"/><circle cx="437.77262786177073" cy="3.4711374866695905" r="1.5932822978881274"/><circle cx="93.43131374900554" cy="1.6329740498259753" r="1.9041470567360652"/><circle cx="62.27091509932757" cy="100.977699016021" r="0.6133237219145613"/><circle cx="412.447323505879" cy="373.2557053798781" r="2.387830143087434"/><circle cx="225.35145465287565" cy="125.95176695382031" r="1.5673968260725477"/><circle cx="44.74967194165481" cy="219.4192474581298" r="0.872433740884075"/><circle cx="217.89747212501265" cy="132.1712649583542" r="1.1433311670542672"/><circle cx="390.0927017392438" cy="81.62943876130407" r="2.1004517441638693"/><circle cx="160.80869780199419" cy="29.2745709712118" r="0.8646219823837069"/><circle cx="283.8809008524788" cy="382.32685004422103" r="0.5357835798549826"/><circle cx="390.58883499201136" cy="186.219336215059" r="1.0160834457202448"/><circle cx="420.9344361764471" cy="276.21027240365254" r="0.8343983764090885"/><circle cx="132.48845742054777" cy="361.70903686608995" r="2.33854296588605"/><circle cx="166.51178283807667" cy="365.4107090534385" r="2.426014441483047"/><circle cx="300.92625958249005" cy="122.56935828363714" r="1.454151825163068"/><circle cx="29.598467266172975" cy="235.0714114644843" r="2.2123166624540205"/><circle cx="455.01558235821983" cy="448.6411039818631" r="1.6410502361763952"/><circle cx="270.38287101578476" cy="124.08295708007836" r="0.9441825168950424"/><circle cx="505.3454576696522" cy="228.14225537706284" r="0.6403917443329132"/><circle cx="133.20777164472224" cy="326.56762317782443" r="0.8145000427749514"/><circle cx="272.27874831368524" cy="413.8779560496017" r="2.4726738280860294"/><circle cx="191.69710866530818" cy="438.9742718090306" r="1.00536603111723"/><circle cx="92.00694032368449" cy="206.23352282019061" r="0.8609407909040829"/><circle cx="507.75974769861625" cy="95.46288976925837" r="1.1601549444225827"/><circle cx="152.02692980274662" cy="324.46043259500664" r="1.0859104737427199"/><circle cx="54.30779740483433" cy="445.847446251811" r="1.1012631740788836"/><circle cx="252.70427995933562" cy="116.97467251197509" r="1.9443669289167667"/><circle cx="120.75621008621215" cy="415.47011071224676" r="0.8900598904070547"/><circle cx="232.71902705461662" cy="29.126971037188014" r="0.5644518015451467"/><circle cx="234.39309397144734" cy="491.55911464434587" r="1.113249255851573"/><circle cx="259.1584611362457" cy="167.03220282379698" r="0.7434346202967927"/><circle cx="466.57138965072124" cy="230.98788574334617" r="1.3244843368872612"/><circle cx="164.62404077609642" cy="278.10404605616304" r="1.2598449513325818"/><circle cx="433.76166979853326" cy="171.4467726001318" r="2.0279660958784063"/><circle cx="157.00157753862663" cy="456.9842170271272" r="2.0347579555216124"/><circle cx="491.45744841320834" cy="216.52071322012148" r="1.7606614163568892"/><circle cx="346.6217880994542" cy="399.6752194805558" r="0.9150279457914587"/><circle cx="36.36992666771221" cy="14.177497899453101" r="0.6883854988443403"/><circle cx="182.98323165477382" cy="437.4301514252438" r="1.448378556112894"/><circle cx="349.03686841536967" cy="298.5316320999143" r="1.565525890272299"/><circle cx="334.49795263995213" cy="57.64802254596009" r="1.4478167917081488"/><circle cx="481.1338856387158" cy="347.72364142516824" r="1.1240966494071327"/><circle cx="481.80566855668167" cy="476.1098215683272" r="0.8300879492069786"/><circle cx="44.23955209608266" cy="393.02093335639825" r="1.399243982064951"/><circle cx="341.2345650257679" cy="445.5058000727789" r="1.3724968693694577"/><circle cx="54.242411242898925" cy="461.5179182147116" r="0.670288778904129"/><circle cx="239.0376292568634" cy="36.74288561190406" r="0.9884494201922918"/><circle cx="401.67760564035405" cy="502.0820954681857" r="1.7311259939221109"/><circle cx="351.4603140706448" cy="164.03810886629503" r="1.11435787669761"/><circle cx="378.5181050058186" cy="234.3345047940927" r="0.8647272351937212"/><circle cx="133.90454708629557" cy="234.1330016382051" r="1.1059268661114046"/><circle cx="213.77003919755305" cy="406.9508009144997" r="0.7991904093093543"/><circle cx="273.3510374119088" cy="336.6290909572293" r="1.0976439532964872"/><circle cx="224.79233271817782" cy="369.915009722066" r="1.4753522167749105"/><circle cx="240.48094083428828" cy="177.3483496394938" r="1.856173169821382"/><circle cx="284.1059253723065" cy="84.5317406343313" r="1.1078588753284335"/><circle cx="84.10921037898709" cy="121.21370586078433" r="1.4736653363497072"/><circle cx="354.5286220254038" cy="411.3176270224791" r="1.5662450683941"/><circle cx="95.25673924654961" cy="377.35925947853286" r="0.5848657133229902"/><circle cx="54.039836276669575" cy="74.69056427626094" r="0.9119682413511612"/><circle cx="83.26630979879315" cy="0.17267538549947403" r="2.0334558319168434"/><circle cx="222.13592702628546" cy="301.4359792566123" r="1.3150867390871772"/><circle cx="70.42668863193774" cy="71.70974176436698" r="1.6422146734269374"/><circle cx="160.75725592531262" cy="271.96559278575046" r="1.1289593047500213"/><circle cx="449.94392192606847" cy="196.58629279047" r="1.4638285580336325"/><circle cx="218.0606966190686" cy="206.56924082493344" r="1.8123659321155174"/><circle cx="459.93579990131366" cy="486.4875910748789" r="2.0139865493543687"/><circle cx="263.74149731811076" cy="205.6469814240396" r="0.6808469166634028"/><circle cx="276.5498036605227" cy="165.07799146519062" r="2.1205344420246233"/><circle cx="181.61143664489998" cy="363.04914096550465" r="1.3458198337309177"/><circle cx="486.21979781411903" cy="304.75537282140715" r="1.3199567827723477"/><circle cx="500.19909919604936" cy="251.37719329927677" r="1.625288746901989"/><circle cx="234.5785887122919" cy="261.18862339405825" r="2.387717968271065"/><circle cx="456.98575384035314" cy="258.40237925676354" r="1.0442076035725272"/><circle cx="153.84164629946508" cy="151.51899778962752" r="0.943560421405897"/><circle cx="502.60177809910374" cy="226.8550841570975" r="2.3165822947847476"/><circle cx="318.8353897352549" cy="238.58721939123313" r="1.226607729800142"/><circle cx="328.00430638602575" cy="356.17134358397846" r="1.9911140583344031"/><circle cx="367.2684773014879" cy="372.5425232015398" r="1.2275059977319018"/><circle cx="21.545466808811852" cy="182.78680723873015" r="1.7566919191523436"/><circle cx="115.97099358194657" cy="380.2321870876283" r="0.7715376961279694"/><circle cx="240.1626522025059" cy="338.2827730043284" r="1.1518710872625717"/>
  </g>
  
  <!-- Rocket -->
  <g transform="translate(256, 256)">
    <!-- Rocket body -->
    <ellipse cx="0" cy="0" rx="40.96" ry="128" fill="url(#rocket)"/>
    
    <!-- Rocket nose cone -->
    <polygon points="0,-128 -40.96,-76.8 40.96,-76.8" fill="#ff4444"/>
    
    <!-- Rocket window -->
    <circle cx="0" cy="-25.6" r="15.36" fill="url(#window)"/>
    <circle cx="0" cy="-25.6" r="7.68" fill="#ffffff"/>
    
    <!-- Rocket fins -->
    <polygon points="-40.96,76.8 -76.8,128 -61.44,128" fill="#ff4444"/>
    <polygon points="40.96,76.8 76.8,128 61.44,128" fill="#ff4444"/>
    
    <!-- Rocket engine flames -->
    <ellipse cx="0" cy="128" rx="30.72" ry="61.44" fill="url(#flame)"/>
    <ellipse cx="0" cy="128" rx="20.48" ry="40.96" fill="#ffff00"/>
    
    <!-- Side flames -->
    <ellipse cx="-30.72" cy="102.4" rx="15.36" ry="40.96" fill="url(#flame)"/>
    <ellipse cx="30.72" cy="102.4" rx="15.36" ry="40.96" fill="url(#flame)"/>
  </g>
</svg>