<svg width="192" height="192" viewBox="0 0 192 192" xmlns="http://www.w3.org/2000/svg">
  <defs>
    <linearGradient id="bg" x1="0%" y1="0%" x2="100%" y2="100%">
      <stop offset="0%" style="stop-color:#0a0a2a;stop-opacity:1" />
      <stop offset="100%" style="stop-color:#1a1a4a;stop-opacity:1" />
    </linearGradient>
    <linearGradient id="rocket" x1="0%" y1="0%" x2="100%" y2="100%">
      <stop offset="0%" style="stop-color:#ff6b35;stop-opacity:1" />
      <stop offset="50%" style="stop-color:#ff8c42;stop-opacity:1" />
      <stop offset="100%" style="stop-color:#ff6b35;stop-opacity:1" />
    </linearGradient>
    <linearGradient id="window" x1="0%" y1="0%" x2="100%" y2="100%">
      <stop offset="0%" style="stop-color:#87ceeb;stop-opacity:1" />
      <stop offset="100%" style="stop-color:#4a90e2;stop-opacity:1" />
    </linearGradient>
    <radialGradient id="flame" cx="50%" cy="50%" r="50%">
      <stop offset="0%" style="stop-color:#ffff00;stop-opacity:1" />
      <stop offset="50%" style="stop-color:#ff6600;stop-opacity:1" />
      <stop offset="100%" style="stop-color:#ff0000;stop-opacity:0.8" />
    </radialGradient>
  </defs>
  
  <!-- Background -->
  <rect width="192" height="192" fill="url(#bg)"/>
  
  <!-- Stars -->
  <g fill="#ffffff">
    <circle cx="145.26843959585656" cy="45.6023215199814" r="0.6851203244263107"/><circle cx="114.22699813835328" cy="9.294170702102392" r="1.5431027577041663"/><circle cx="102.07420366762099" cy="93.48356877740683" r="1.8897262265624613"/><circle cx="117.42581908453792" cy="37.07908880835912" r="1.1503491391194074"/><circle cx="82.89184684691496" cy="60.96591397659354" r="1.028247710615514"/><circle cx="46.69405000683537" cy="148.9662032651502" r="1.2053448283908805"/><circle cx="39.527976786215405" cy="178.89068989242656" r="0.6031787013851733"/><circle cx="183.80069934969106" cy="110.75501449743315" r="1.9752053864598649"/><circle cx="175.79664848187002" cy="125.66594563997849" r="2.1794024958443217"/><circle cx="164.2977142112082" cy="75.7846163147639" r="1.3860950017707556"/><circle cx="103.20560341928059" cy="184.61682261604557" r="1.2446135536077314"/><circle cx="66.99902296528509" cy="106.76329495840325" r="1.6379044714106183"/><circle cx="156.81387653205798" cy="101.62142441908637" r="2.4467486583314204"/><circle cx="150.92717094075306" cy="131.04129684006674" r="0.5817142556810122"/><circle cx="160.69600175877082" cy="124.42441122087831" r="2.2373539635643835"/><circle cx="28.130501570569606" cy="6.548514189394112" r="1.2797110816149675"/><circle cx="73.79514393843526" cy="84.54445133206167" r="2.2129098862560577"/><circle cx="165.10953067484704" cy="68.10446241529587" r="2.01144105905254"/><circle cx="176.78710413526625" cy="21.975499351522572" r="0.5964822719190579"/><circle cx="39.546527417370285" cy="173.1609848150544" r="1.5068743999371783"/><circle cx="80.54729581446844" cy="26.582056846389975" r="1.753175475154483"/><circle cx="56.790499505144595" cy="110.47420054179831" r="1.3411919356757713"/><circle cx="186.00535591354668" cy="134.43841847144466" r="1.8997569013539848"/><circle cx="21.179766327451347" cy="16.05147693521829" r="1.0402901884645739"/><circle cx="87.19581163353482" cy="9.071302185754575" r="1.1028500100966943"/><circle cx="93.75961841866075" cy="167.4610962313933" r="0.813228020782157"/><circle cx="41.41607097408665" cy="5.404909381971109" r="2.2798003739304713"/><circle cx="149.15961760484913" cy="87.90049696041466" r="2.26812179527749"/><circle cx="31.852220276482882" cy="180.50159959590522" r="2.286516724619874"/><circle cx="74.16717829325013" cy="51.742922070541894" r="2.3464271522007873"/><circle cx="12.962190081161268" cy="180.96144214349047" r="2.1413863171792853"/><circle cx="67.08742852272243" cy="133.9989904544035" r="1.9401543918645796"/>
  </g>
  
  <!-- Rocket -->
  <g transform="translate(96, 96)">
    <!-- Rocket body -->
    <ellipse cx="0" cy="0" rx="15.36" ry="48" fill="url(#rocket)"/>
    
    <!-- Rocket nose cone -->
    <polygon points="0,-48 -15.36,-28.799999999999997 15.36,-28.799999999999997" fill="#ff4444"/>
    
    <!-- Rocket window -->
    <circle cx="0" cy="-9.600000000000001" r="5.76" fill="url(#window)"/>
    <circle cx="0" cy="-9.600000000000001" r="2.88" fill="#ffffff"/>
    
    <!-- Rocket fins -->
    <polygon points="-15.36,28.799999999999997 -28.799999999999997,48 -23.04,48" fill="#ff4444"/>
    <polygon points="15.36,28.799999999999997 28.799999999999997,48 23.04,48" fill="#ff4444"/>
    
    <!-- Rocket engine flames -->
    <ellipse cx="0" cy="48" rx="11.52" ry="23.04" fill="url(#flame)"/>
    <ellipse cx="0" cy="48" rx="7.68" ry="15.36" fill="#ffff00"/>
    
    <!-- Side flames -->
    <ellipse cx="-11.52" cy="38.400000000000006" rx="5.76" ry="15.36" fill="url(#flame)"/>
    <ellipse cx="11.52" cy="38.400000000000006" rx="5.76" ry="15.36" fill="url(#flame)"/>
  </g>
</svg>